<svg width="3096" height="567" viewBox="0 0 3096 567" fill="none" xmlns="http://www.w3.org/2000/svg">
<mask id="mask0_118_863" style="mask-type:alpha" maskUnits="userSpaceOnUse" x="0" y="55" width="512" height="512">
<path d="M256 567C397.385 567 512 452.385 512 311C512 169.615 397.385 55 256 55C114.615 55 0 169.615 0 311C0 452.385 114.615 567 256 567Z" fill="#33CC33"/>
</mask>
<g mask="url(#mask0_118_863)">
<path d="M256 567C397.385 567 512 452.385 512 311C512 169.615 397.385 55 256 55C114.615 55 0 169.615 0 311C0 452.385 114.615 567 256 567Z" fill="#15803D"/>
<path d="M88 313C88 257.772 132.772 213 188 213H288V582H88V313Z" fill="white"/>
<path d="M218 213H343C398.228 213 443 257.772 443 313C443 368.228 398.228 413 343 413H218V213Z" fill="white"/>
<path d="M339 388C380.421 388 414 354.421 414 313C414 271.579 380.421 238 339 238C297.579 238 264 271.579 264 313C264 354.421 297.579 388 339 388Z" fill="#15803D"/>
<path d="M256.478 377.112L269.357 339.509L296.069 373.589L256.478 377.112Z" fill="#15803D"/>
<path d="M310 326C315.523 326 320 321.523 320 316C320 310.477 315.523 306 310 306C304.477 306 300 310.477 300 316C300 321.523 304.477 326 310 326Z" fill="white"/>
<path d="M343 326C348.523 326 353 321.523 353 316C353 310.477 348.523 306 343 306C337.477 306 333 310.477 333 316C333 321.523 337.477 326 343 326Z" fill="white"/>
<path d="M376 326C381.523 326 386 321.523 386 316C386 310.477 381.523 306 376 306C370.477 306 366 310.477 366 316C366 321.523 370.477 326 376 326Z" fill="white"/>
</g>
<path d="M699.84 209.08C707.84 196.6 718.88 186.52 732.96 178.84C747.04 171.16 763.52 167.32 782.4 167.32C804.48 167.32 824.48 172.92 842.4 184.12C860.32 195.32 874.4 211.32 884.64 232.12C895.2 252.92 900.48 277.08 900.48 304.6C900.48 332.12 895.2 356.44 884.64 377.56C874.4 398.36 860.32 414.52 842.4 426.04C824.48 437.24 804.48 442.84 782.4 442.84C763.84 442.84 747.36 439 732.96 431.32C718.88 423.64 707.84 413.72 699.84 401.56V566.68H617.76V171.16H699.84V209.08ZM816.96 304.6C816.96 284.12 811.2 268.12 799.68 256.6C788.48 244.76 774.56 238.84 757.92 238.84C741.6 238.84 727.68 244.76 716.16 256.6C704.96 268.44 699.36 284.6 699.36 305.08C699.36 325.56 704.96 341.72 716.16 353.56C727.68 365.4 741.6 371.32 757.92 371.32C774.24 371.32 788.16 365.4 799.68 353.56C811.2 341.4 816.96 325.08 816.96 304.6ZM1196.02 300.76C1196.02 308.44 1195.54 316.44 1194.58 324.76H1008.82C1010.1 341.4 1015.38 354.2 1024.66 363.16C1034.26 371.8 1045.94 376.12 1059.7 376.12C1080.18 376.12 1094.42 367.48 1102.42 350.2H1189.78C1185.3 367.8 1177.14 383.64 1165.3 397.72C1153.78 411.8 1139.22 422.84 1121.62 430.84C1104.02 438.84 1084.34 442.84 1062.58 442.84C1036.34 442.84 1012.98 437.24 992.501 426.04C972.021 414.84 956.021 398.84 944.501 378.04C932.981 357.24 927.221 332.92 927.221 305.08C927.221 277.24 932.821 252.92 944.021 232.12C955.541 211.32 971.541 195.32 992.021 184.12C1012.5 172.92 1036.02 167.32 1062.58 167.32C1088.5 167.32 1111.54 172.76 1131.7 183.64C1151.86 194.52 1167.54 210.04 1178.74 230.2C1190.26 250.36 1196.02 273.88 1196.02 300.76ZM1112.02 279.16C1112.02 265.08 1107.22 253.88 1097.62 245.56C1088.02 237.24 1076.02 233.08 1061.62 233.08C1047.86 233.08 1036.18 237.08 1026.58 245.08C1017.3 253.08 1011.54 264.44 1009.3 279.16H1112.02ZM1321.4 215.8C1331 201.08 1343 189.56 1357.4 181.24C1371.8 172.6 1387.8 168.28 1405.4 168.28V255.16H1382.84C1362.36 255.16 1347 259.64 1336.76 268.6C1326.52 277.24 1321.4 292.6 1321.4 314.68V439H1239.32V171.16H1321.4V215.8ZM1485.92 143.32C1471.52 143.32 1459.68 139.16 1450.4 130.84C1441.44 122.2 1436.96 111.64 1436.96 99.16C1436.96 86.36 1441.44 75.8 1450.4 67.48C1459.68 58.84 1471.52 54.52 1485.92 54.52C1500 54.52 1511.52 58.84 1520.48 67.48C1529.76 75.8 1534.4 86.36 1534.4 99.16C1534.4 111.64 1529.76 122.2 1520.48 130.84C1511.52 139.16 1500 143.32 1485.92 143.32ZM1526.72 171.16V439H1444.64V171.16H1526.72ZM1695.16 442.84C1671.8 442.84 1651 438.84 1632.76 430.84C1614.52 422.84 1600.12 411.96 1589.56 398.2C1579 384.12 1573.08 368.44 1571.8 351.16H1652.92C1653.88 360.44 1658.2 367.96 1665.88 373.72C1673.56 379.48 1683 382.36 1694.2 382.36C1704.44 382.36 1712.28 380.44 1717.72 376.6C1723.48 372.44 1726.36 367.16 1726.36 360.76C1726.36 353.08 1722.36 347.48 1714.36 343.96C1706.36 340.12 1693.4 335.96 1675.48 331.48C1656.28 327 1640.28 322.36 1627.48 317.56C1614.68 312.44 1603.64 304.6 1594.36 294.04C1585.08 283.16 1580.44 268.6 1580.44 250.36C1580.44 235 1584.6 221.08 1592.92 208.6C1601.56 195.8 1614.04 185.72 1630.36 178.36C1647 171 1666.68 167.32 1689.4 167.32C1723 167.32 1749.4 175.64 1768.6 192.28C1788.12 208.92 1799.32 231 1802.2 258.52H1726.36C1725.08 249.24 1720.92 241.88 1713.88 236.44C1707.16 231 1698.2 228.28 1687 228.28C1677.4 228.28 1670.04 230.2 1664.92 234.04C1659.8 237.56 1657.24 242.52 1657.24 248.92C1657.24 256.6 1661.24 262.36 1669.24 266.2C1677.56 270.04 1690.36 273.88 1707.64 277.72C1727.48 282.84 1743.64 287.96 1756.12 293.08C1768.6 297.88 1779.48 305.88 1788.76 317.08C1798.36 327.96 1803.32 342.68 1803.64 361.24C1803.64 376.92 1799.16 391 1790.2 403.48C1781.56 415.64 1768.92 425.24 1752.28 432.28C1735.96 439.32 1716.92 442.84 1695.16 442.84ZM2017.53 439L1935.93 326.68V439H1853.85V83.8H1935.93V280.12L2017.05 171.16H2118.33L2006.97 305.56L2119.29 439H2017.53ZM2272.49 442.84C2246.25 442.84 2222.57 437.24 2201.45 426.04C2180.65 414.84 2164.17 398.84 2152.01 378.04C2140.17 357.24 2134.25 332.92 2134.25 305.08C2134.25 277.56 2140.33 253.4 2152.49 232.6C2164.65 211.48 2181.29 195.32 2202.41 184.12C2223.53 172.92 2247.21 167.32 2273.45 167.32C2299.69 167.32 2323.37 172.92 2344.49 184.12C2365.61 195.32 2382.25 211.48 2394.41 232.6C2406.57 253.4 2412.65 277.56 2412.65 305.08C2412.65 332.6 2406.41 356.92 2393.93 378.04C2381.77 398.84 2364.97 414.84 2343.53 426.04C2322.41 437.24 2298.73 442.84 2272.49 442.84ZM2272.49 371.8C2288.17 371.8 2301.45 366.04 2312.33 354.52C2323.53 343 2329.13 326.52 2329.13 305.08C2329.13 283.64 2323.69 267.16 2312.81 255.64C2302.25 244.12 2289.13 238.36 2273.45 238.36C2257.45 238.36 2244.17 244.12 2233.61 255.64C2223.05 266.84 2217.77 283.32 2217.77 305.08C2217.77 326.52 2222.89 343 2233.13 354.52C2243.69 366.04 2256.81 371.8 2272.49 371.8ZM2538.28 209.08C2546.28 196.6 2557.32 186.52 2571.4 178.84C2585.48 171.16 2601.96 167.32 2620.84 167.32C2642.92 167.32 2662.92 172.92 2680.84 184.12C2698.76 195.32 2712.84 211.32 2723.08 232.12C2733.64 252.92 2738.92 277.08 2738.92 304.6C2738.92 332.12 2733.64 356.44 2723.08 377.56C2712.84 398.36 2698.76 414.52 2680.84 426.04C2662.92 437.24 2642.92 442.84 2620.84 442.84C2602.28 442.84 2585.8 439 2571.4 431.32C2557.32 423.64 2546.28 413.72 2538.28 401.56V566.68H2456.2V171.16H2538.28V209.08ZM2655.4 304.6C2655.4 284.12 2649.64 268.12 2638.12 256.6C2626.92 244.76 2613 238.84 2596.36 238.84C2580.04 238.84 2566.12 244.76 2554.6 256.6C2543.4 268.44 2537.8 284.6 2537.8 305.08C2537.8 325.56 2543.4 341.72 2554.6 353.56C2566.12 365.4 2580.04 371.32 2596.36 371.32C2612.68 371.32 2626.6 365.4 2638.12 353.56C2649.64 341.4 2655.4 325.08 2655.4 304.6ZM3034.46 300.76C3034.46 308.44 3033.98 316.44 3033.02 324.76H2847.26C2848.54 341.4 2853.82 354.2 2863.1 363.16C2872.7 371.8 2884.38 376.12 2898.14 376.12C2918.62 376.12 2932.86 367.48 2940.86 350.2H3028.22C3023.74 367.8 3015.58 383.64 3003.74 397.72C2992.22 411.8 2977.66 422.84 2960.06 430.84C2942.46 438.84 2922.78 442.84 2901.02 442.84C2874.78 442.84 2851.42 437.24 2830.94 426.04C2810.46 414.84 2794.46 398.84 2782.94 378.04C2771.42 357.24 2765.66 332.92 2765.66 305.08C2765.66 277.24 2771.26 252.92 2782.46 232.12C2793.98 211.32 2809.98 195.32 2830.46 184.12C2850.94 172.92 2874.46 167.32 2901.02 167.32C2926.94 167.32 2949.98 172.76 2970.14 183.64C2990.3 194.52 3005.98 210.04 3017.18 230.2C3028.7 250.36 3034.46 273.88 3034.46 300.76ZM2950.46 279.16C2950.46 265.08 2945.66 253.88 2936.06 245.56C2926.46 237.24 2914.46 233.08 2900.06 233.08C2886.3 233.08 2874.62 237.08 2865.02 245.08C2855.74 253.08 2849.98 264.44 2847.74 279.16H2950.46Z" fill="black"/>
</svg>
